<svg xmlns="http://www.w3.org/2000/svg" xmlns:xlink="http://www.w3.org/1999/xlink" version="1.1" x="0px" y="0px" viewBox="0 0 100 125" style="enable-background:new 0 0 100 100;" xml:space="preserve"><path d="M42.114,37.282c0.199-0.292,0.228-0.668,0.077-0.988l-2.038-4.32c-0.235-0.499-0.831-0.714-1.331-0.478  c-0.5,0.235-0.713,0.831-0.478,1.331l1.315,2.789l-2.385-0.151c-0.357-0.016-0.699,0.147-0.896,0.445s-0.221,0.679-0.062,0.999  l2.037,4.087c0.175,0.351,0.528,0.554,0.896,0.554c0.15,0,0.302-0.033,0.445-0.105c0.494-0.246,0.695-0.847,0.449-1.341  l-1.263-2.533l2.342,0.148C41.575,37.735,41.915,37.575,42.114,37.282z"/><path d="M79.133,54.199h-1.73c-1.107-5.493-5.969-9.644-11.784-9.644c-4.48,0-8.388,2.468-10.456,6.11  c-0.892-0.773-2.452-1.519-5.166-1.519c-2.712,0-4.271,0.743-5.163,1.516c-2.068-3.641-5.976-6.108-10.454-6.108  c-5.815,0-10.676,4.15-11.784,9.644h-1.735c-0.552,0-1,0.447-1,1s0.448,1,1,1h1.516c-0.004,0.127-0.019,0.251-0.019,0.379  c0,6.629,5.393,12.021,12.022,12.021c6.629,0,12.022-5.393,12.022-12.021c0-1.382-0.246-2.705-0.678-3.942  c0.268-0.449,1.217-1.488,4.273-1.488c3.089,0,4.027,1.064,4.278,1.486c-0.432,1.238-0.678,2.561-0.678,3.944  c0,6.629,5.393,12.021,12.022,12.021c6.629,0,12.022-5.393,12.022-12.021c0-0.128-0.015-0.252-0.019-0.379h1.51c0.552,0,1-0.447,1-1  S79.686,54.199,79.133,54.199z M34.38,66.6c-5.526,0-10.022-4.496-10.022-10.021c0-5.526,4.496-10.022,10.022-10.022  s10.022,4.496,10.022,10.022C44.402,62.104,39.906,66.6,34.38,66.6z M65.62,66.6c-5.526,0-10.022-4.496-10.022-10.021  c0-5.526,4.496-10.022,10.022-10.022s10.022,4.496,10.022,10.022C75.642,62.104,71.146,66.6,65.62,66.6z"/><text x="0" y="115" fill="#000000" font-size="5px" font-weight="bold" font-family="'Helvetica Neue', Helvetica, Arial-Unicode, Arial, Sans-serif">Created by Olguioo</text><text x="0" y="120" fill="#000000" font-size="5px" font-weight="bold" font-family="'Helvetica Neue', Helvetica, Arial-Unicode, Arial, Sans-serif">from the Noun Project</text></svg>