<svg xmlns="http://www.w3.org/2000/svg" width="61.271" height="38.202" viewBox="0 0 61.271 38.202">
  <path id="Intersection_1" data-name="Intersection 1" d="M53.6,27.176a11.94,11.94,0,0,1,.679-3.944c-.251-.422-1.19-1.486-4.279-1.486-3.056,0-4,1.039-4.273,1.488a12.016,12.016,0,1,1-23.366,3.942c0-.128.015-.252.019-.379H20.861a1,1,0,1,1,0-2H22.6a12.012,12.012,0,0,1,22.238-3.536c.892-.773,2.451-1.516,5.162-1.516a7.609,7.609,0,0,1,5.166,1.518A12.014,12.014,0,0,1,77.4,24.8h1.731a1,1,0,1,1,0,2H77.622c0,.127.019.251.019.379a12.022,12.022,0,0,1-24.044,0Zm2,0A10.022,10.022,0,1,0,65.62,17.157,10.033,10.033,0,0,0,55.6,27.179Zm-31.241,0A10.022,10.022,0,1,0,34.38,17.157,10.034,10.034,0,0,0,24.358,27.179ZM38.353,11.6,36.316,7.509a1,1,0,0,1,.062-1,1.013,1.013,0,0,1,.9-.445l2.385.15L38.344,3.426a1,1,0,0,1,1.809-.852l2.039,4.32a1,1,0,0,1-.077.987,1.016,1.016,0,0,1-.892.437L38.88,8.171,40.143,10.7a1,1,0,0,1-.449,1.341.981.981,0,0,1-.445.105A1,1,0,0,1,38.353,11.6Z" transform="translate(-19.361 -1.495)" stroke="#030000" stroke-width="1"/>
</svg>
